Exact Audio Copy V0.99 prebeta 1 from 25. May 2007

EAC 抓取日志文件从17. 十月 2010, 11:51

群星 / 20世纪中华歌坛名人百集珍藏版-流行歌坛名人1

使用驱动器  ：BENQ    DVD-ROM 16X   Adapter: 0  ID: 1

读取模式     : 保护
使用精确流   : 是
废除音频缓冲 : 是
使用 C2 指针 : 否

读取偏移校正                   : 738
读取 Lead-In 和 Lead-Out       : 否
用静音填充抓取中丢失偏移的采样 : 是
去除首尾静音块                 : 否
已用接口                       : 已安装外部 ASPI 接口

所用输出格式 : 内部 WAV 函数
样本格式     : 44.100 Hz;16 Bit;立体声


被抓轨 CD 的 TOC

     音轨 |   开始   |   长度   | 起始扇区 | 结尾扇区 
    --------------------------------------------------
       1  |  0:00.32 |  4:20.03 |      32  |   19534  
       2  |  4:20.35 |  4:36.07 |   19535  |   40241  
       3  |  8:56.42 |  4:11.15 |   40242  |   59081  
       4  | 13:07.57 |  4:03.53 |   59082  |   77359  
       5  | 17:11.35 |  3:25.05 |   77360  |   92739  
       6  | 20:36.40 |  5:10.52 |   92740  |  116041  
       7  | 25:47.17 |  3:51.25 |  116042  |  133391  
       8  | 29:38.42 |  3:18.13 |  133392  |  148254  
       9  | 32:56.55 |  1:53.02 |  148255  |  156731  
      10  | 34:49.57 |  2:59.70 |  156732  |  170226  
      11  | 37:49.52 |  4:05.65 |  170227  |  188666  
      12  | 41:55.42 |  4:04.68 |  188667  |  207034  
      13  | 46:00.35 |  3:02.05 |  207035  |  220689  
      14  | 49:02.40 |  4:10.00 |  220690  |  239439  
      15  | 53:12.40 |  4:36.22 |  239440  |  260161  
      16  | 57:48.62 |  5:23.58 |  260162  |  284444  


范围状态及错误

已选择范围

     文件名 E:\文件夹\20世纪中华歌坛名人百集珍藏版-流行歌坛名人1[lwg188原创]\群星 - 20世纪中华歌坛名人百集珍藏版-流行歌坛名人1.wav

     峰值电平 100.0 %
     范围质量 100.0 %
     复制 CRC 96326EC1
     复制成功

没有错误发生

状态报告结尾
